<svg xmlns="http://www.w3.org/2000/svg" width="47" height="47" fill="none" viewBox="0 0 47 47">
  <circle cx="23.5" cy="23.5" r="23" fill="#232123" stroke="#fff"/>
  <g clip-path="url(#a)">
    <path fill="#fff" d="M31.996 31H32v-5.87c0-2.87-.618-5.082-3.974-5.082-1.613 0-2.696.886-3.138 1.725h-.047v-1.457H21.66V31h3.314v-5.29c0-1.393.264-2.74 1.988-2.74 1.7 0 1.725 1.59 1.725 2.83V31h3.31ZM16.264 20.318h3.317V31h-3.317V20.318ZM17.921 15c-1.06 0-1.921.86-1.921 1.921s.86 1.94 1.921 1.94 1.922-.879 1.922-1.94A1.925 1.925 0 0 0 17.92 15Z"/>
  </g>
  <defs>
    <clipPath id="a">
      <path fill="#fff" d="M0 0h16v16H0z" transform="translate(16 15)"/>
    </clipPath>
  </defs>
</svg>
